<svg version="1.1" id="Layer_1" xmlns="http://www.w3.org/2000/svg" xmlns:xlink="http://www.w3.org/1999/xlink" x="0px" y="0px"
	 width="100%" viewBox="0 0 5120 5120" enable-background="new 0 0 5120 5120" xml:space="preserve">
<path fill="#FFFFFF" opacity="1.000000" stroke="none" 
	d="
M2872.000000,5124.000000 
	C1914.666626,5124.000000 959.333313,5124.000000 4.000000,5124.000000 
	C4.000000,3417.333252 4.000000,1710.666626 4.000000,4.000001 
	C1710.666626,4.000000 3417.333252,4.000000 5124.000000,4.000000 
	C5124.000000,1710.666626 5124.000000,3417.333252 5124.000000,5124.000000 
	C4374.000000,5124.000000 3624.000000,5124.000000 2872.000000,5124.000000 
M4190.570312,921.924072 
	C4188.419922,916.347900 4186.208008,910.794861 4184.128906,905.192261 
	C4155.971680,829.324585 4109.165039,767.493225 4043.687012,720.056946 
	C3973.985352,669.560974 3895.598389,645.336853 3809.761719,645.223572 
	C3661.764404,645.028198 3513.766357,645.163574 3365.768799,645.163330 
	C2924.442627,645.162537 2483.116455,645.169617 2041.790283,645.147522 
	C2015.087646,645.146240 1988.575684,646.842957 1962.160400,651.154602 
	C1830.681519,672.615906 1706.922607,766.563599 1656.208862,909.188965 
	C1640.869995,952.327393 1633.939941,996.874817 1633.911621,1042.567993 
	C1633.879517,1094.567139 1633.921265,1146.566406 1633.856934,1198.565552 
	C1633.848999,1205.059814 1633.388672,1211.553589 1633.096191,1219.132446 
	C1625.400513,1219.392822 1618.876099,1219.802856 1612.351562,1219.805908 
	C1517.019775,1219.849976 1421.687500,1219.978882 1326.356323,1219.740723 
	C1303.602539,1219.683838 1280.924438,1220.828003 1258.677246,1225.074219 
	C1124.567993,1250.671509 1026.874268,1324.765503 966.504578,1447.223633 
	C941.069458,1498.817993 929.696533,1554.078369 928.932983,1611.464844 
	C928.480652,1645.458252 928.829651,1679.462646 928.829590,1713.462036 
	C928.828491,2502.115967 928.844788,3290.769775 928.776428,4079.423828 
	C928.773438,4114.221191 931.904968,4148.575195 939.822815,4182.511719 
	C973.705200,4327.737793 1093.334839,4445.201172 1238.622437,4476.365234 
	C1270.795776,4483.266602 1303.195435,4485.302734 1335.933594,4485.299805 
	C1918.590820,4485.239258 2501.248047,4485.274902 3083.905273,4485.195312 
	C3109.896973,4485.191895 3135.888428,4484.291992 3165.883789,4484.845215 
	C3229.161621,4484.908691 3292.441406,4485.242676 3355.716309,4484.832520 
	C3370.271240,4484.738281 3384.969482,4482.998047 3399.330566,4480.473633 
	C3514.802734,4460.172363 3619.242432,4358.151367 3623.017334,4217.454102 
	C3624.571289,4159.544434 3623.345703,4101.558105 3623.226074,4043.607178 
	C3623.218506,4039.888916 3621.842529,4036.173340 3620.902588,4031.445557 
	C3581.492188,4031.445557 3542.906250,4031.445557 3503.581543,4027.829834 
	C3503.613525,3990.593750 3503.642822,3953.357666 3503.699951,3916.121582 
	C3503.700684,3915.512451 3503.921387,3914.831055 3504.247314,3914.314697 
	C3504.591309,3913.770264 3505.184814,3913.383545 3507.083008,3911.598145 
	C3512.165771,3911.598145 3518.703369,3911.598145 3525.240967,3911.598145 
	C3619.681152,3911.596924 3714.121094,3911.644531 3808.561279,3911.544189 
	C3823.175781,3911.528809 3837.789551,3910.836670 3855.969482,3911.354736 
	C3921.945801,3911.383545 3987.924072,3911.684082 4053.897461,3911.244629 
	C4069.816895,3911.138672 4086.058105,3910.181885 4101.575684,3906.896973 
	C4209.033691,3884.148926 4280.787598,3820.545654 4315.935059,3716.390625 
	C4325.597168,3687.756592 4328.028320,3657.923096 4328.022949,3627.702393 
	C4327.885742,2807.995361 4327.913574,1988.288452 4327.913086,1168.581421 
	C4327.913086,1165.249268 4327.947754,1161.916260 4327.889160,1158.585083 
	C4326.469727,1077.611328 4295.483887,1009.934387 4235.888672,955.382812 
	C4222.671875,943.284790 4208.732422,931.874695 4190.570312,921.924072 
z"/>
<path fill="#200302" opacity="1.000000" stroke="none" 
	d="
M3852.403809,3910.457764 
	C3837.789551,3910.836670 3823.175781,3911.528809 3808.561279,3911.544189 
	C3714.121094,3911.644531 3619.681152,3911.596924 3525.240967,3911.598145 
	C3518.703369,3911.598145 3512.165771,3911.598145 3507.083008,3911.598145 
	C3505.184814,3913.383545 3504.591309,3913.770264 3504.247314,3914.314697 
	C3503.921387,3914.831055 3503.700684,3915.512451 3503.699951,3916.121582 
	C3503.642822,3953.357666 3503.613525,3990.593750 3503.554688,4031.517578 
	C3503.462891,4053.173340 3503.324463,4071.141113 3503.350342,4089.108887 
	C3503.384766,4113.129395 3501.018799,4136.904297 3496.766357,4160.537109 
	C3467.236328,4324.657715 3337.231934,4453.056641 3173.061035,4480.276855 
	C3169.243896,4480.909668 3165.603027,4482.607910 3161.880127,4483.809570 
	C3135.888428,4484.291992 3109.896973,4485.191895 3083.905273,4485.195312 
	C2501.248047,4485.274902 1918.590820,4485.239258 1335.933594,4485.299805 
	C1303.195435,4485.302734 1270.795776,4483.266602 1238.622437,4476.365234 
	C1093.334839,4445.201172 973.705200,4327.737793 939.822815,4182.511719 
	C931.904968,4148.575195 928.773438,4114.221191 928.776428,4079.423828 
	C928.844788,3290.769775 928.828491,2502.115967 928.829590,1713.462036 
	C928.829651,1679.462646 928.480652,1645.458252 928.932983,1611.464844 
	C929.696533,1554.078369 941.069458,1498.817993 966.504578,1447.223633 
	C1026.874268,1324.765503 1124.567993,1250.671509 1258.677246,1225.074219 
	C1280.924438,1220.828003 1303.602539,1219.683838 1326.356323,1219.740723 
	C1421.687500,1219.978882 1517.019775,1219.849976 1612.351562,1219.805908 
	C1618.876099,1219.802856 1625.400513,1219.392822 1633.096191,1219.132446 
	C1633.388672,1211.553589 1633.848999,1205.059814 1633.856934,1198.565552 
	C1633.921265,1146.566406 1633.879517,1094.567139 1633.911621,1042.567993 
	C1633.939941,996.874817 1640.869995,952.327393 1656.208862,909.188965 
	C1706.922607,766.563599 1830.681519,672.615906 1962.160400,651.154602 
	C1988.575684,646.842957 2015.087646,645.146240 2041.790283,645.147522 
	C2483.116455,645.169617 2924.442627,645.162537 3365.768799,645.163330 
	C3513.766357,645.163574 3661.764404,645.028198 3809.761719,645.223572 
	C3895.598389,645.336853 3973.985352,669.560974 4043.687012,720.056946 
	C4109.165039,767.493225 4155.971680,829.324585 4184.128906,905.192261 
	C4186.208008,910.794861 4188.419922,916.347900 4191.276367,924.748413 
	C4202.470703,966.974548 4208.134277,1006.860107 4208.122559,1047.835693 
	C4207.888184,1867.358154 4207.946777,2686.880615 4207.933594,3506.403076 
	C4207.933594,3526.373779 4207.495605,3546.243408 4204.719727,3566.160889 
	C4200.565430,3595.968018 4194.125488,3625.080811 4183.497559,3653.213867 
	C4162.223145,3709.530762 4130.121582,3758.581055 4086.695557,3800.565918 
	C4035.617432,3849.949707 3975.631348,3882.667236 3907.037598,3899.853027 
	C3889.068848,3904.355469 3870.627930,3906.974121 3852.403809,3910.457764 
M1886.527100,3750.141113 
	C1887.829590,3750.773926 1889.132202,3751.406494 1892.302734,3754.300049 
	C1938.000977,3780.848877 1987.221558,3793.002441 2043.718140,3791.138916 
	C2056.378418,3791.220215 2069.038574,3791.372314 2081.698730,3791.372559 
	C2542.858398,3791.384766 3004.018066,3791.374268 3465.177734,3791.388916 
	C3579.801025,3791.392578 3694.424561,3791.422852 3809.047852,3791.555664 
	C3833.839355,3791.584229 3858.497559,3789.126465 3882.124756,3782.235107 
	C3985.949463,3751.952637 4052.255371,3684.348145 4080.230713,3579.662354 
	C4087.163574,3553.718506 4088.000000,3527.155029 4087.995850,3500.412109 
	C4087.869873,2691.383545 4087.893555,1882.354858 4087.892578,1073.326294 
	C4087.892578,1061.997192 4087.670166,1050.663818 4087.912109,1039.340088 
	C4088.385010,1017.185425 4085.200439,995.434814 4079.633545,974.157654 
	C4071.162842,941.782471 4059.232666,910.818542 4036.936035,881.541931 
	C4000.971924,830.933411 3953.145752,796.570496 3894.148682,777.697632 
	C3864.039307,768.065796 3832.974609,765.199036 3801.491699,765.202393 
	C3315.120117,765.254456 2828.748535,765.237854 2342.376953,765.237976 
	C2240.438721,765.237976 2138.500244,765.076843 2036.563110,765.402588 
	C2019.292969,765.457825 2001.683594,765.826538 1984.818970,769.089172 
	C1877.882324,789.776917 1805.341064,851.515198 1767.982056,953.973999 
	C1756.658936,985.028137 1753.869751,1017.502258 1753.923706,1050.336060 
	C1754.138184,1180.920532 1754.248901,1311.505005 1754.477783,1442.089355 
	C1754.488281,1448.041260 1755.274170,1453.991699 1754.799438,1463.617798 
	C1754.734863,1470.947144 1754.614014,1478.276489 1754.613892,1485.605835 
	C1754.605225,2154.682617 1754.605347,2823.759521 1754.610107,3492.836182 
	C1754.610229,3502.832275 1754.084229,3512.873291 1754.842651,3522.814209 
	C1756.106445,3539.382568 1756.783325,3556.189453 1760.208374,3572.366211 
	C1775.704956,3645.556641 1815.375854,3702.773682 1876.979126,3744.938721 
	C1880.129517,3747.094727 1883.153320,3750.266846 1887.889893,3748.229980 
	C1887.889893,3748.229980 1887.608398,3748.101318 1886.527100,3750.141113 
M1337.567139,4364.966309 
	C1342.232422,4365.000488 1346.897827,4365.064453 1351.563110,4365.064453 
	C1931.456665,4365.068359 2511.350342,4365.067871 3091.243896,4365.062500 
	C3099.908936,4365.062500 3108.581543,4365.209473 3117.236572,4364.895020 
	C3126.555176,4364.557129 3135.937988,4364.342773 3145.153320,4363.067383 
	C3253.916748,4348.014160 3342.914307,4270.189453 3372.813477,4164.462891 
	C3385.165039,4120.786133 3384.340088,4076.243164 3383.020508,4027.936768 
	C3382.976318,3990.634766 3382.936279,3953.333008 3382.847900,3916.031006 
	C3382.846680,3915.473877 3382.274170,3914.894531 3381.906494,3914.368652 
	C3381.526123,3913.824219 3381.070312,3913.332275 3379.695557,3911.657471 
	C3372.732666,3911.657471 3364.797363,3911.657227 3356.862061,3911.656982 
	C2925.128662,3911.644287 2493.395264,3911.660400 2061.661865,3911.544922 
	C2037.045410,3911.538330 2012.429199,3910.457764 1984.970825,3908.766602 
	C1975.747681,3907.452881 1966.477051,3906.407715 1957.308594,3904.785156 
	C1817.030029,3879.957031 1694.072510,3775.399170 1650.218262,3629.729004 
	C1638.010010,3589.177490 1633.344482,3547.657471 1633.345947,3505.454102 
	C1633.367798,2832.270996 1633.364990,2159.088135 1633.314941,1485.905151 
	C1633.314331,1477.278198 1632.627686,1468.651245 1633.192505,1456.375977 
	C1633.124268,1419.062256 1633.057983,1381.748535 1632.970947,1344.434814 
	C1632.969482,1343.784180 1632.873047,1343.034424 1632.538452,1342.511597 
	C1632.202393,1341.986328 1631.512939,1341.687378 1629.116455,1339.902588 
	C1627.775146,1339.902588 1624.563110,1339.902222 1621.351196,1339.902710 
	C1520.693359,1339.916748 1420.035278,1339.813721 1319.378174,1340.092773 
	C1306.783936,1340.127686 1294.114380,1341.613281 1281.616821,1343.390869 
	C1182.494995,1357.489258 1090.924072,1431.452393 1059.928833,1538.290527 
	C1051.500122,1567.343872 1048.804810,1597.047852 1048.807495,1627.200928 
	C1048.880981,2444.462158 1048.866333,3261.723633 1048.869263,4078.984863 
	C1048.869263,4084.317627 1048.562256,4089.679688 1049.001221,4094.977783 
	C1050.211060,4109.579590 1050.576660,4124.378418 1053.337524,4138.702148 
	C1068.929443,4219.587402 1111.693726,4282.355957 1181.844849,4325.545898 
	C1228.347290,4354.175293 1279.083984,4368.303223 1337.567139,4364.966309 
z"/>
<path fill="#D80C02" opacity="1.000000" stroke="none" 
	d="
M3854.186523,3910.906250 
	C3870.627930,3906.974121 3889.068848,3904.355469 3907.037598,3899.853027 
	C3975.631348,3882.667236 4035.617432,3849.949707 4086.695557,3800.565918 
	C4130.121582,3758.581055 4162.223145,3709.530762 4183.497559,3653.213867 
	C4194.125488,3625.080811 4200.565430,3595.968018 4204.719727,3566.160889 
	C4207.495605,3546.243408 4207.933594,3526.373779 4207.933594,3506.403076 
	C4207.946777,2686.880615 4207.888184,1867.358154 4208.122559,1047.835693 
	C4208.134277,1006.860107 4202.470703,966.974548 4192.043945,926.007080 
	C4208.732422,931.874695 4222.671875,943.284790 4235.888672,955.382812 
	C4295.483887,1009.934387 4326.469727,1077.611328 4327.889160,1158.585083 
	C4327.947754,1161.916260 4327.913086,1165.249268 4327.913086,1168.581421 
	C4327.913574,1988.288452 4327.885742,2807.995361 4328.022949,3627.702393 
	C4328.028320,3657.923096 4325.597168,3687.756592 4315.935059,3716.390625 
	C4280.787598,3820.545654 4209.033691,3884.148926 4101.575684,3906.896973 
	C4086.058105,3910.181885 4069.816895,3911.138672 4053.897461,3911.244629 
	C3987.924072,3911.684082 3921.945801,3911.383545 3854.186523,3910.906250 
z"/>
<path fill="#FCB304" opacity="1.000000" stroke="none" 
	d="
M3163.881836,4484.327148 
	C3165.603027,4482.607910 3169.243896,4480.909668 3173.061035,4480.276855 
	C3337.231934,4453.056641 3467.236328,4324.657715 3496.766357,4160.537109 
	C3501.018799,4136.904297 3503.384766,4113.129395 3503.350342,4089.108887 
	C3503.324463,4071.141113 3503.462891,4053.173340 3503.924316,4033.325684 
	C3542.906250,4031.445557 3581.492188,4031.445557 3620.902588,4031.445557 
	C3621.842529,4036.173340 3623.218506,4039.888916 3623.226074,4043.607178 
	C3623.345703,4101.558105 3624.571289,4159.544434 3623.017334,4217.454102 
	C3619.242432,4358.151367 3514.802734,4460.172363 3399.330566,4480.473633 
	C3384.969482,4482.998047 3370.271240,4484.738281 3355.716309,4484.832520 
	C3292.441406,4485.242676 3229.161621,4484.908691 3163.881836,4484.327148 
z"/>
<path fill="#D90A00" opacity="1.000000" stroke="none" 
	d="
M4037.983398,884.273987 
	C4059.232666,910.818542 4071.162842,941.782471 4079.633545,974.157654 
	C4085.200439,995.434814 4088.385010,1017.185425 4087.912109,1039.340088 
	C4087.670166,1050.663818 4087.892578,1061.997192 4087.892578,1073.326294 
	C4087.893555,1882.354858 4087.869873,2691.383545 4087.995850,3500.412109 
	C4088.000000,3527.155029 4087.163574,3553.718506 4080.230713,3579.662354 
	C4052.255371,3684.348145 3985.949463,3751.952637 3882.124756,3782.235107 
	C3858.497559,3789.126465 3833.839355,3791.584229 3809.047852,3791.555664 
	C3694.424561,3791.422852 3579.801025,3791.392578 3465.177734,3791.388916 
	C3004.018066,3791.374268 2542.858398,3791.384766 2081.698730,3791.372559 
	C2069.038574,3791.372314 2056.378418,3791.220215 2041.265381,3789.637207 
	C2029.903564,3770.302979 2020.010498,3752.884277 2012.295288,3734.549316 
	C1997.312988,3698.943848 1993.973145,3661.249756 1993.979126,3622.920898 
	C1994.106934,2807.628906 1994.076294,1992.336792 1994.078125,1177.044800 
	C1994.078125,1171.045044 1993.832397,1165.030762 1994.161865,1159.048584 
	C1994.894775,1145.743530 1994.995850,1132.315430 1996.972168,1119.180908 
	C2013.130005,1011.794128 2091.945557,923.846558 2197.053467,895.067017 
	C2224.956299,887.427002 2253.374756,885.169922 2282.140625,885.171570 
	C2858.111572,885.203918 3434.082275,885.199707 4010.053223,885.156738 
	C4019.363281,885.156067 4028.673340,884.580994 4037.983398,884.273987 
z"/>
<path fill="#FDB303" opacity="1.000000" stroke="none" 
	d="
M3382.265381,4031.577148 
	C3384.340088,4076.243164 3385.165039,4120.786133 3372.813477,4164.462891 
	C3342.914307,4270.189453 3253.916748,4348.014160 3145.153320,4363.067383 
	C3135.937988,4364.342773 3126.555176,4364.557129 3117.236572,4364.895020 
	C3108.581543,4365.209473 3099.908936,4365.062500 3091.243896,4365.062500 
	C2511.350342,4365.067871 1931.456665,4365.068359 1351.563110,4365.064453 
	C1346.897827,4365.064453 1342.232422,4365.000488 1335.567383,4363.060547 
	C1301.249878,4310.038086 1288.556885,4254.135254 1288.585693,4193.842773 
	C1288.972656,3381.338623 1288.845459,2568.834473 1288.845825,1756.330200 
	C1288.845825,1749.664795 1288.475342,1742.974121 1288.926147,1736.339111 
	C1290.009399,1720.397461 1290.359863,1704.296387 1292.968384,1688.585449 
	C1314.565796,1558.507324 1428.574219,1461.155640 1560.277710,1459.956299 
	C1584.270020,1459.737915 1608.266602,1459.989624 1632.261230,1460.024292 
	C1632.627686,1468.651245 1633.314331,1477.278198 1633.314941,1485.905151 
	C1633.364990,2159.088135 1633.367798,2832.270996 1633.345947,3505.454102 
	C1633.344482,3547.657471 1638.010010,3589.177490 1650.218262,3629.729004 
	C1694.072510,3775.399170 1817.030029,3879.957031 1957.308594,3904.785156 
	C1966.477051,3906.407715 1975.747681,3907.452881 1986.770508,3910.735352 
	C1993.048828,3917.569824 1997.207886,3922.782715 2002.059448,3927.242432 
	C2028.186035,3951.257080 2057.000000,3971.492432 2088.589355,3987.700684 
	C2146.567139,4017.448242 2208.253906,4031.481445 2273.322021,4031.469482 
	C2546.397705,4031.419678 2819.473145,4031.439697 3092.548828,4031.457031 
	C3189.121094,4031.463135 3285.693115,4031.535156 3382.265381,4031.577148 
z"/>
<path fill="#FEFEFD" opacity="1.000000" stroke="none" 
	d="
M1632.726807,1458.200195 
	C1608.266602,1459.989624 1584.270020,1459.737915 1560.277710,1459.956299 
	C1428.574219,1461.155640 1314.565796,1558.507324 1292.968384,1688.585449 
	C1290.359863,1704.296387 1290.009399,1720.397461 1288.926147,1736.339111 
	C1288.475342,1742.974121 1288.845825,1749.664795 1288.845825,1756.330200 
	C1288.845459,2568.834473 1288.972656,3381.338623 1288.585693,4193.842773 
	C1288.556885,4254.135254 1301.249878,4310.038086 1333.870361,4362.646484 
	C1279.083984,4368.303223 1228.347290,4354.175293 1181.844849,4325.545898 
	C1111.693726,4282.355957 1068.929443,4219.587402 1053.337524,4138.702148 
	C1050.576660,4124.378418 1050.211060,4109.579590 1049.001221,4094.977783 
	C1048.562256,4089.679688 1048.869263,4084.317627 1048.869263,4078.984863 
	C1048.866333,3261.723633 1048.880981,2444.462158 1048.807495,1627.200928 
	C1048.804810,1597.047852 1051.500122,1567.343872 1059.928833,1538.290527 
	C1090.924072,1431.452393 1182.494995,1357.489258 1281.616821,1343.390869 
	C1294.114380,1341.613281 1306.783936,1340.127686 1319.378174,1340.092773 
	C1420.035278,1339.813721 1520.693359,1339.916748 1621.351196,1339.902710 
	C1624.563110,1339.902222 1627.775146,1339.902588 1629.116455,1339.902588 
	C1631.512939,1341.687378 1632.202393,1341.986328 1632.538452,1342.511597 
	C1632.873047,1343.034424 1632.969482,1343.784180 1632.970947,1344.434814 
	C1633.057983,1381.748535 1633.124268,1419.062256 1632.726807,1458.200195 
z"/>
<path fill="#FEFDFD" opacity="1.000000" stroke="none" 
	d="
M4037.459717,882.907959 
	C4028.673340,884.580994 4019.363281,885.156067 4010.053223,885.156738 
	C3434.082275,885.199707 2858.111572,885.203918 2282.140625,885.171570 
	C2253.374756,885.169922 2224.956299,887.427002 2197.053467,895.067017 
	C2091.945557,923.846558 2013.130005,1011.794128 1996.972168,1119.180908 
	C1994.995850,1132.315430 1994.894775,1145.743530 1994.161865,1159.048584 
	C1993.832397,1165.030762 1994.078125,1171.045044 1994.078125,1177.044800 
	C1994.076294,1992.336792 1994.106934,2807.628906 1993.979126,3622.920898 
	C1993.973145,3661.249756 1997.312988,3698.943848 2012.295288,3734.549316 
	C2020.010498,3752.884277 2029.903564,3770.302979 2039.426636,3789.292725 
	C1987.221558,3793.002441 1938.000977,3780.848877 1891.421631,3752.205078 
	C1890.151367,3748.583496 1889.173950,3747.913818 1887.608398,3748.101318 
	C1887.608398,3748.101318 1887.889893,3748.229980 1888.187500,3746.697754 
	C1888.061401,3742.538330 1887.885010,3739.842041 1887.176270,3737.294189 
	C1877.824463,3703.675781 1874.233765,3669.352051 1874.397339,3634.553223 
	C1874.444336,3624.561768 1874.379150,3614.569824 1874.379150,3604.578125 
	C1874.377808,2900.492676 1874.378174,2196.407227 1874.377319,1492.321655 
	C1874.377319,1485.660522 1874.597900,1478.988037 1874.274292,1472.342407 
	C1874.089233,1468.544922 1873.010864,1464.790771 1872.142334,1459.942871 
	C1832.850098,1459.942871 1794.274414,1459.942871 1755.698853,1459.942871 
	C1755.274170,1453.991699 1754.488281,1448.041260 1754.477783,1442.089355 
	C1754.248901,1311.505005 1754.138184,1180.920532 1753.923706,1050.336060 
	C1753.869751,1017.502258 1756.658936,985.028137 1767.982056,953.973999 
	C1805.341064,851.515198 1877.882324,789.776917 1984.818970,769.089172 
	C2001.683594,765.826538 2019.292969,765.457825 2036.563110,765.402588 
	C2138.500244,765.076843 2240.438721,765.237976 2342.376953,765.237976 
	C2828.748535,765.237854 3315.120117,765.254456 3801.491699,765.202393 
	C3832.974609,765.199036 3864.039307,768.065796 3894.148682,777.697632 
	C3953.145752,796.570496 4000.971924,830.933411 4037.459717,882.907959 
z"/>
<path fill="#FDB407" opacity="1.000000" stroke="none" 
	d="
M1755.249146,1461.780273 
	C1794.274414,1459.942871 1832.850098,1459.942871 1872.142334,1459.942871 
	C1873.010864,1464.790771 1874.089233,1468.544922 1874.274292,1472.342407 
	C1874.597900,1478.988037 1874.377319,1485.660522 1874.377319,1492.321655 
	C1874.378174,2196.407227 1874.377808,2900.492676 1874.379150,3604.578125 
	C1874.379150,3614.569824 1874.444336,3624.561768 1874.397339,3634.553223 
	C1874.233765,3669.352051 1877.824463,3703.675781 1887.176270,3737.294189 
	C1887.885010,3739.842041 1888.061401,3742.538330 1888.091431,3746.818848 
	C1883.153320,3750.266846 1880.129517,3747.094727 1876.979126,3744.938721 
	C1815.375854,3702.773682 1775.704956,3645.556641 1760.208374,3572.366211 
	C1756.783325,3556.189453 1756.106445,3539.382568 1754.842651,3522.814209 
	C1754.084229,3512.873291 1754.610229,3502.832275 1754.610107,3492.836182 
	C1754.605347,2823.759521 1754.605225,2154.682617 1754.613892,1485.605835 
	C1754.614014,1478.276489 1754.734863,1470.947144 1755.249146,1461.780273 
z"/>
<path fill="#FEFDFC" opacity="1.000000" stroke="none" 
	d="
M3382.643066,4029.756836 
	C3285.693115,4031.535156 3189.121094,4031.463135 3092.548828,4031.457031 
	C2819.473145,4031.439697 2546.397705,4031.419678 2273.322021,4031.469482 
	C2208.253906,4031.481445 2146.567139,4017.448242 2088.589355,3987.700684 
	C2057.000000,3971.492432 2028.186035,3951.257080 2002.059448,3927.242432 
	C1997.207886,3922.782715 1993.048828,3917.569824 1988.191650,3911.290527 
	C2012.429199,3910.457764 2037.045410,3911.538330 2061.661865,3911.544922 
	C2493.395264,3911.660400 2925.128662,3911.644287 3356.862061,3911.656982 
	C3364.797363,3911.657227 3372.732666,3911.657471 3379.695557,3911.657471 
	C3381.070312,3913.332275 3381.526123,3913.824219 3381.906494,3914.368652 
	C3382.274170,3914.894531 3382.846680,3915.473877 3382.847900,3916.031006 
	C3382.936279,3953.333008 3382.976318,3990.634766 3382.643066,4029.756836 
z"/>
<path fill="#FDB407" opacity="1.000000" stroke="none" 
	d="
M1887.067749,3749.121094 
	C1889.173950,3747.913818 1890.151367,3748.583496 1890.487793,3751.074707 
	C1889.132202,3751.406494 1887.829590,3750.773926 1887.067749,3749.121094 
z"/>
</svg>